# File created by Blade
# Date/Time:  Thu Jan 22 15:33:09 2015
#---------------------------------------------------------
:version 1.10
:name HOM
:units
  mass 1.0
  length 1.000000
  angle deg
:documentation
     Acclaim Skeleton File
:root
   axis xyz
   order TX TY TZ RX RY RZ
   position 0.000000 0.000000 0.000000
   orientation 0 0 0
:bonedata
   begin
      id 1
      name RightUpLeg_dum
      direction -1.000000 0.000000 0.000000
      length 3.693983
      axis 0.0 0.0 0.0 xyz
   end
   begin
      id 2
      name LeftUpLeg_dum
      direction 1.000000 0.000000 0.000000
      length 3.693983
      axis 0.0 0.0 0.0 xyz
   end
   begin
      id 3
      name Spine_dum
      direction 0.000000 1.000000 0.000000
      length 2.392956
      axis 0.0 0.0 0.0 xyz
   end
   begin
      id 4
      name RightUpLeg
      direction 0.000000 -1.000000 0.000000
      length 15.795667
      axis 0.0 0.0 0.0 xyz
      dof rx ry rz
   end
   begin
      id 5
      name RightLeg
      direction 0.000000 -1.000000 0.000000
      length 14.766989
      axis 0.0 0.0 0.0 xyz
      dof rx ry rz
   end
   begin
      id 6
      name RightFoot
      direction 0.000000 -0.258819 0.965926
      length 4.962790
      axis 15.0 0.0 0.0 xyz
      dof rx ry rz
   end
   begin
      id 7
      name RightToeBase
      direction 0.000000 0.000000 1.000000
      length 2.952750
      axis 0.0 0.0 0.0 xyz
      dof rx ry rz
   end
   begin
      id 8
      name LeftUpLeg
      direction 0.000000 -1.000000 0.000000
      length 15.795667
      axis 0.0 0.0 0.0 xyz
      dof rx ry rz
   end
   begin
      id 9
      name LeftLeg
      direction 0.000000 -1.000000 0.000000
      length 14.766989
      axis 0.0 0.0 0.0 xyz
      dof rx ry rz
   end
   begin
      id 10
      name LeftFoot
      direction 0.000000 -0.258819 0.965926
      length 4.962790
      axis 15.0 0.0 0.0 xyz
      dof rx ry rz
   end
   begin
      id 11
      name LeftToeBase
      direction 0.000000 0.000000 1.000000
      length 2.952750
      axis 0.0 0.0 0.0 xyz
      dof rx ry rz
   end
   begin
      id 12
      name Spine
      direction 0.000000 1.000000 0.000000
      length 0.000000
      axis 0.0 0.0 0.0 xyz
      dof rx ry rz
   end
   begin
      id 13
      name Spine_dum1
      direction 0.000000 1.000000 0.000000
      length 13.207411
      axis 0.0 0.0 0.0 xyz
   end
   begin
      id 14
      name Spine_dum2
      direction 0.000000 1.000000 0.000000
      length 13.207411
      axis 0.0 0.0 0.0 xyz
   end
   begin
      id 15
      name Spine_dum3
      direction 0.000000 1.000000 0.000000
      length 19.250100
      axis 0.0 0.0 0.0 xyz
   end
   begin
      id 16
      name RightShoulder
      direction -1.000000 0.000000 0.000000
      length 8.140465
      axis 0.0 0.0 90.0 xyz
      dof rx ry rz
   end
   begin
      id 17
      name RightArm
      direction -1.000000 0.000000 0.000000
      length 10.649840
      axis 0.0 0.0 90.0 xyz
      dof rx ry rz
   end
   begin
      id 18
      name RightForeArm
      direction -1.000000 0.000000 0.000000
      length 8.304624
      axis 0.0 0.0 90.0 xyz
      dof ry rz rx
   end
   begin
      id 19
      name RightHand
      direction -1.000000 0.000000 0.000000
      length 0.000000
      axis 0.0 0.0 90.0 xyz
      dof rx ry rz
   end
   begin
      id 20
      name RightHand_dum1
      direction -1.000000 0.000000 0.000000
      length 3.937000
      axis 0.0 0.0 90.0 xyz
   end
   begin
      id 21
      name RightHand_dum2
      direction 0.000000 0.000000 0.000000
      length 0.000000
      axis 0.0 0.0 90.0 xyz
   end
   begin
      id 22
      name RightHandThumb1
      direction 0.000000 0.000000 1.000000
      length 3.937000
      axis 0.0 0.0 90.0 xyz
      dof rx rz ry
   end
   begin
      id 23
      name LeftShoulder
      direction 1.000000 0.000000 0.000000
      length 8.140465
      axis 0.0 0.0 -90.0 xyz
      dof rx ry rz
   end
   begin
      id 24
      name LeftArm
      direction 1.000000 0.000000 0.000000
      length 10.649840
      axis 0.0 0.0 -90.0 xyz
      dof rx ry rz
   end
   begin
      id 25
      name LeftForeArm
      direction 1.000000 0.000000 0.000000
      length 8.304624
      axis 0.0 0.0 -90.0 xyz
      dof ry rz rx
   end
   begin
      id 26
      name LeftHand
      direction 1.000000 0.000000 0.000000
      length 0.000000
      axis 0.0 0.0 -90.0 xyz
      dof rx ry rz
   end
   begin
      id 27
      name LeftHand_dum1
      direction 1.000000 0.000000 0.000000
      length 3.937000
      axis 0.0 0.0 -90.0 xyz
   end
   begin
      id 28
      name LeftHand_dum2
      direction 0.000000 0.000000 0.000000
      length 0.000000
      axis 0.0 0.0 -90.0 xyz
   end
   begin
      id 29
      name LeftHandThumb1
      direction 0.000000 0.000000 1.000000
      length 3.937000
      axis 0.0 0.0 -90.0 xyz
      dof rx rz ry
   end
   begin
      id 30
      name Head
      direction 0.000000 1.000000 0.000000
      length 4.527550
      axis 0.0 0.0 0.0 xyz
      dof rx ry rz
   end
:hierarchy
   begin
      root RightUpLeg_dum LeftUpLeg_dum Spine_dum
      RightUpLeg_dum RightUpLeg
      LeftUpLeg_dum LeftUpLeg
      Spine_dum Spine
      RightUpLeg RightLeg
      RightLeg RightFoot
      RightFoot RightToeBase
      LeftUpLeg LeftLeg
      LeftLeg LeftFoot
      LeftFoot LeftToeBase
      Spine Spine_dum1 Spine_dum2 Spine_dum3
      Spine_dum1 RightShoulder
      Spine_dum2 LeftShoulder
      Spine_dum3 Head
      RightShoulder RightArm
      RightArm RightForeArm
      RightForeArm RightHand
      RightHand RightHand_dum1 RightHand_dum2
      RightHand_dum2 RightHandThumb1
      LeftShoulder LeftArm
      LeftArm LeftForeArm
      LeftForeArm LeftHand
      LeftHand LeftHand_dum1 LeftHand_dum2
      LeftHand_dum2 LeftHandThumb1
   end

# File created by Blade
# Date/Time:  Thu Jan 22 15:33:01 2015
# Frame Rate: 120.000 fps
#------------------------------------------------------
:FULLY-SPECIFIED
:DEGREES
1062
root 9.011568 18.925170 6.237829 5.306251 -84.094068 -239.514471
RightUpLeg -95.868879 -20.060650 5.652845
RightLeg 61.246642 -0.000000 -0.000000
RightFoot 44.681608 -3.308428 14.306825
RightToeBase 54.687043 -0.000000 -0.000000
LeftUpLeg -97.431439 14.015998 1.371608
LeftLeg 66.615659 -0.000000 -0.000000
LeftFoot 43.238207 -12.346433 -13.316451
LeftToeBase 34.165178 -0.000000 -0.000000
Spine 68.020531 -0.536101 12.731664
RightShoulder -14.346761 -37.634636 -11.951483
RightArm -36.770680 -47.826109 96.870107
RightForeArm 61.408099 -0.000000 110.881129
RightHand 4.054025 -0.000000 4.048870
RightHandThumb1 -24.326973 -0.000000 -32.862282
LeftShoulder -6.146016 44.294463 25.225458
LeftArm 3.751539 55.928061 -66.934724
LeftForeArm -25.169615 -0.000000 106.929082
LeftHand -16.992592 -0.000000 -13.801427
LeftHandThumb1 -26.253704 0.000000 33.147579
Head 99.962700 -5.303783 -27.247067
1063
root 9.109272 18.889810 6.257993 6.651977 -84.061667 -242.219487
RightUpLeg -94.965591 -20.089450 5.500660
RightLeg 60.776412 -0.000000 -0.000000
RightFoot 45.132185 -1.754356 13.144904
RightToeBase 53.166507 -0.000000 -0.000000
LeftUpLeg -96.644489 13.712005 1.731570
LeftLeg 65.940935 -0.000000 -0.000000
LeftFoot 43.501781 -12.485432 -13.609081
LeftToeBase 33.691049 -0.000000 -0.000000
Spine 69.136796 -0.900916 12.993873
RightShoulder -14.693082 -38.989177 -11.662128
RightArm -34.593123 -48.062259 95.268079
RightForeArm 61.359731 -0.000000 110.896695
RightHand 4.080733 -0.000000 4.039644
RightHandThumb1 -24.326973 -0.000000 -32.862282
LeftShoulder -6.310973 44.310752 25.036290
LeftArm 3.733135 55.910960 -66.878751
LeftForeArm -25.213349 -0.000000 106.948975
LeftHand -17.092772 -0.000000 -13.790244
LeftHandThumb1 -26.253704 0.000000 33.147579
Head 100.125219 -5.092543 -27.391504
1064
root 9.202856 18.866867 6.290117 8.385637 -83.961969 -245.494099
RightUpLeg -93.867050 -20.227879 5.383236
RightLeg 60.261151 -0.000000 -0.000000
RightFoot 45.418958 -0.961755 12.594430
RightToeBase 52.408585 -0.000000 -0.000000
LeftUpLeg -95.689666 13.279605 2.204793
LeftLeg 65.261417 -0.000000 -0.000000
LeftFoot 43.652731 -12.146790 -14.021246
LeftToeBase 33.744766 -0.000000 -0.000000
Spine 70.345185 -1.396108 13.316082
RightShoulder -14.800567 -40.381219 -11.544724
RightArm -32.626108 -48.081638 93.867566
RightForeArm 61.264310 -0.000000 111.016967
RightHand 3.995653 -0.000000 4.087088
RightHandThumb1 -24.326973 -0.000000 -32.862282
LeftShoulder -6.303204 44.354733 25.083755
LeftArm 3.688119 55.938999 -67.014064
LeftForeArm -25.214577 -0.000000 106.978493
LeftHand -16.981854 -0.000000 -13.691362
LeftHandThumb1 -26.253704 0.000000 33.147579
Head 100.190497 -4.963264 -27.530301
1065
root 9.296885 18.841083 6.319369 9.850529 -83.861904 -248.589438
RightUpLeg -92.646037 -20.349358 5.148635
RightLeg 59.794011 -0.000000 -0.000000
RightFoot 45.344655 -1.187079 12.930203
RightToeBase 52.797361 -0.000000 -0.000000
LeftUpLeg -94.658945 12.864132 2.629245
LeftLeg 64.619824 -0.000000 -0.000000
LeftFoot 43.835960 -12.047327 -14.018130
LeftToeBase 33.183259 -0.000000 -0.000000
Spine 71.659782 -1.934910 13.548893
RightShoulder -14.742676 -40.860923 -11.816466
RightArm -31.918608 -48.166185 93.450745
RightForeArm 61.288696 0.000000 111.046384
RightHand 4.013906 -0.000000 4.078263
RightHandThumb1 -24.326973 -0.000000 -32.862282
LeftShoulder -6.453463 44.443314 25.015795
LeftArm 3.780698 55.940395 -66.970811
LeftForeArm -25.264559 -0.000000 107.064077
LeftHand -16.976998 -0.000000 -13.660343
LeftHandThumb1 -26.253704 0.000000 33.147579
Head 100.191896 -4.768035 -27.663648
1066
root 9.388465 18.813455 6.350279 11.775506 -83.782283 -252.188247
RightUpLeg -91.376404 -20.455478 5.020443
RightLeg 59.346152 -0.000000 -0.000000
RightFoot 45.321887 -1.509679 13.243913
RightToeBase 53.027903 -0.000000 -0.000000
LeftUpLeg -93.583379 12.482197 3.101558
LeftLeg 63.985771 -0.000000 -0.000000
LeftFoot 43.960467 -12.083645 -13.981192
LeftToeBase 32.722766 -0.000000 -0.000000
Spine 73.006343 -2.473222 13.887610
RightShoulder -15.713895 -45.300299 -10.751280
RightArm -25.039373 -48.377270 88.571932
RightForeArm 61.330239 -0.000000 110.965876
RightHand 4.274167 -0.000000 4.370222
RightHandThumb1 -24.326973 -0.000000 -32.862282
LeftShoulder -6.530467 44.494889 24.972411
LeftArm 3.956376 56.008870 -66.829813
LeftForeArm -25.259756 -0.000000 107.182162
LeftHand -16.656792 -0.000000 -13.662608
LeftHandThumb1 -26.253704 0.000000 33.147579
Head 100.188566 -4.568747 -27.866643
1067
root 9.490980 18.799800 6.396089 14.703326 -83.466044 -256.324165
RightUpLeg -90.638673 -20.761388 5.166368
RightLeg 58.980472 -0.000000 -0.000000
RightFoot 45.274110 -1.341558 13.386418
RightToeBase 53.180630 -0.000000 -0.000000
LeftUpLeg -93.042802 11.849358 3.635943
LeftLeg 63.344625 -0.000000 -0.000000
LeftFoot 44.070935 -12.073324 -13.943200
LeftToeBase 31.973292 -0.000000 -0.000000
Spine 73.795183 -3.160762 14.318267
RightShoulder -16.194050 -47.390378 -10.419759
RightArm -21.877701 -48.392264 86.287162
RightForeArm 61.369466 -0.000000 110.970863
RightHand 4.221380 -0.000000 4.194800
RightHandThumb1 -24.326973 -0.000000 -32.862282
LeftShoulder -6.676982 44.491154 24.796741
LeftArm 3.886477 56.113637 -66.883801
LeftForeArm -25.311097 -0.000000 107.298683
LeftHand -16.754493 -0.000000 -13.453300
LeftHandThumb1 -26.253704 0.000000 33.147579
Head 100.250165 -4.326154 -27.997956
1068
root 9.578286 18.770449 6.412507 16.028226 -83.491703 -259.453513
RightUpLeg -89.261406 -20.729233 4.966261
RightLeg 58.651047 -0.000000 -0.000000
RightFoot 45.383915 -1.157800 13.138393
RightToeBase 52.982294 -0.000000 -0.000000
LeftUpLeg -91.787250 11.610425 4.004857
LeftLeg 62.668337 -0.000000 -0.000000
LeftFoot 44.098802 -12.055835 -13.872472
LeftToeBase 31.568971 -0.000000 -0.000000
Spine 75.347430 -3.535611 14.475113
RightShoulder -16.534164 -49.013667 -10.164789
RightArm -19.319193 -48.364303 84.521147
RightForeArm 61.452695 0.000000 110.994990
RightHand 4.367855 0.000000 4.057343
RightHandThumb1 -24.326973 -0.000000 -32.862282
LeftShoulder -6.766609 44.370742 24.905075
LeftArm 3.792942 56.240077 -67.056604
LeftForeArm -25.428470 -0.000000 107.422316
LeftHand -16.886142 -0.000000 -13.158277
LeftHandThumb1 -26.253704 0.000000 33.147579
Head 100.208524 -4.237488 -28.152803
